<?xml version="1.0" standalone="no"?>
<!DOCTYPE svg PUBLIC "-//W3C//DTD SVG 20010904//EN"
 "http://www.w3.org/TR/2001/REC-SVG-20010904/DTD/svg10.dtd">
<svg version="1.0" xmlns="http://www.w3.org/2000/svg"
 width="480.000000pt" height="480.000000pt" viewBox="0 0 480.000000 480.000000"
 preserveAspectRatio="xMidYMid meet">
<metadata>
Created by potrace 1.11, written by Peter Selinger 2001-2013
</metadata>
<g transform="translate(0.000000,480.000000) scale(0.100000,-0.100000)"
fill="#000000" stroke="none">
<path d="M600 3000 l0 -800 -200 0 -200 0 0 -600 0 -600 2200 0 2200 0 0 600
0 600 -200 0 -200 0 0 800 0 800 -1800 0 -1800 0 0 -800z m800 200 l0 -200
-200 0 -200 0 0 200 0 200 200 0 200 0 0 -200z m2400 -400 l0 -600 -800 0
-800 0 0 -200 0 -200 1000 0 1000 0 0 -200 0 -200 -1200 0 -1200 0 0 400 0
400 -200 0 -200 0 0 -400 0 -400 -400 0 -400 0 0 200 0 200 200 0 200 0 0 400
0 400 400 0 400 0 0 400 0 400 1000 0 1000 0 0 -600z"/>
<path d="M2200 2800 l0 -200 600 0 600 0 0 200 0 200 -600 0 -600 0 0 -200z"/>
</g>
</svg>
